#N canvas -7 0 1419 980 12;
#X obj 473 907 netsend -u -b;
#X msg 95 881 connect 127.0.0.1 8001;
#X msg 172 791 1;
#X obj 172 820 oscformat -f f play;
#X obj 324 821 oscformat -f f stop;
#X msg 324 792 1;
#X text 203 790 /play 1;
#X text 352 791 /stop 1;
#X obj 475 822 oscformat -f f master volume;
#X obj 476 793 nbx 5 17 -1e+37 1e+37 0 0 empty empty empty 0 -10 0 12 #e3c6ff #000000 #000000 0 256;
#X msg 557 793 0.5;
#X obj 479 766 hsl 162 19 0 1 0 0 empty empty empty -2 -10 0 12 #9c00ff #faff00 #000000 0 1;
#X obj 232 59 comport;
#X msg 232 18 close;
#X msg 284 18 devices;
#X msg 351 19 baud 115200 \, open 4;
#X obj 232 91 pdchoco/slip_parse;
#X obj 232 125 oscparse;
#X obj 232 160 list trim;
#X obj 232 194 route bouton analog;
#X obj 232 245 tgl 19 0 empty empty empty 0 -10 0 12 #fcfcfc #000000 #000000 0 1;
#X obj 949 626 nbx 5 17 -1e+37 1e+37 0 0 empty empty empty 0 -10 0 12 #fcfcfc #000000 #000000 0 256;
#X text 1017 624 nombre2;
#X text 256 247 interrupteur;
#X obj 235 652 select 0 1;
#X msg 155 607 0;
#X msg 190 607 1;
#X obj 172 757 bng 19 250 50 0 empty empty empty 0 -10 0 12 #fcfcfc #000000 #000000;
#X obj 323 757 bng 19 250 50 0 empty empty empty 0 -10 0 12 #fcfcfc #000000 #000000;
#X obj 15 315 tgl 19 0 empty empty empty 0 -10 0 12 #ffc7c6 #000000 #000000 0 1;
#X obj 15 286 change;
#X obj 234 485 change;
#X obj 234 510 tgl 19 0 empty empty empty 0 -10 0 12 #c6ffc7 #000000 #000000 0 1;
#X obj 234 459 pdchoco/stream_flip_flop;
#X text 260 511 LIEN FLIP/FLOP TOGGLE;
#X text 42 315 LIEN DIRECT, f 12;
#X text 64 285 transforme le flux en évènement;
#X obj 707 821 oscformat -f i vkb_midi 0 note 60;
#X msg 707 780 127;
#X msg 743 779 0;
#X obj 949 820 oscformat -f i vkb_midi 0 cc 14;
#X obj 949 793 nbx 5 17 -1e+37 1e+37 0 0 empty empty empty 0 -10 0 12 #fcfcfc #000000 #000000 0 256;
#X obj 949 667 * 127;
#X obj 949 697 / 4095;
#X obj 949 740 pdchoco/stream_smooth 0.1 0.1;
#X connect 1 0 0 0;
#X connect 2 0 3 0;
#X connect 3 0 0 0;
#X connect 4 0 0 0;
#X connect 5 0 4 0;
#X connect 8 0 0 0;
#X connect 9 0 8 0;
#X connect 10 0 8 0;
#X connect 11 0 9 0;
#X connect 12 0 16 0;
#X connect 13 0 12 0;
#X connect 14 0 12 0;
#X connect 15 0 12 0;
#X connect 16 0 17 0;
#X connect 17 0 18 0;
#X connect 18 0 19 0;
#X connect 19 0 20 0;
#X connect 19 1 21 0;
#X connect 20 0 33 0;
#X connect 20 0 30 0;
#X connect 21 0 42 0;
#X connect 24 0 27 0;
#X connect 24 1 28 0;
#X connect 25 0 24 0;
#X connect 26 0 24 0;
#X connect 27 0 2 0;
#X connect 28 0 5 0;
#X connect 30 0 29 0;
#X connect 31 0 32 0;
#X connect 32 0 24 0;
#X connect 33 0 31 0;
#X connect 37 0 0 0;
#X connect 38 0 37 0;
#X connect 39 0 37 0;
#X connect 40 0 0 0;
#X connect 41 0 40 0;
#X connect 42 0 43 0;
#X connect 43 0 44 0;
#X connect 44 0 41 0;
